<svg xmlns="http://www.w3.org/2000/svg" viewBox="0 0 32 32" role="img" aria-labelledby="title desc">
  <title id="title">Media Categories</title>
  <desc id="desc">A suite-matched media card icon with a category badge for the Media Categories plugin.</desc>
  <defs>
    <linearGradient id="mediaCategoriesBg" x1="5" y1="4" x2="27" y2="28" gradientUnits="userSpaceOnUse">
      <stop offset="0" stop-color="#1d2736"/>
      <stop offset="0.55" stop-color="#244762"/>
      <stop offset="1" stop-color="#0f9ed5"/>
    </linearGradient>
    <linearGradient id="mediaCategoriesCard" x1="8" y1="8" x2="24" y2="22" gradientUnits="userSpaceOnUse">
      <stop offset="0" stop-color="#f9fcff"/>
      <stop offset="1" stop-color="#d9edf9"/>
    </linearGradient>
    <linearGradient id="mediaCategoriesBadge" x1="14" y1="18" x2="24" y2="26" gradientUnits="userSpaceOnUse">
      <stop offset="0" stop-color="#ffc770"/>
      <stop offset="1" stop-color="#ff9f43"/>
    </linearGradient>
  </defs>
  <rect x="2" y="2" width="28" height="28" rx="8" fill="url(#mediaCategoriesBg)"/>
  <rect x="7.5" y="8.5" width="14" height="11.2" rx="2.8" fill="url(#mediaCategoriesCard)"/>
  <circle cx="11" cy="12" r="1.45" fill="#0f9ed5"/>
  <path d="M9.6 17.6l2.9-3.35 2.35 2.35 2.15-2.7 2.35 3.7z" fill="#2f617e"/>
  <path d="M18.2 17.9h4.8c1.25 0 2.25 1 2.25 2.25v3.35c0 1.25-1 2.25-2.25 2.25h-9.05c-1.25 0-2.25-1-2.25-2.25v-3.35c0-1.25 1-2.25 2.25-2.25h2.05l1.65-1.95z" fill="url(#mediaCategoriesBadge)"/>
  <g transform="translate(13.48 20.33) scale(0.5)">
    <g fill="#fff7eb" stroke="#7b4b00" stroke-linejoin="round" stroke-width="0.45">
      <path d="M0 1.1h2l.45-.6h1.25c.42 0 .78.28.9.68l.18.62H0z"/>
      <path d="M-.25 1.85h5.1c.35 0 .65.3.65.65v1.15c0 .35-.3.65-.65.65h-5.1c-.35 0-.65-.3-.65-.65V2.5c0-.35.3-.65.65-.65z"/>
    </g>
    <g transform="translate(7.4 0)" fill="#fff7eb" stroke="#7b4b00" stroke-linejoin="round" stroke-width="0.45">
      <path d="M0 1.1h2l.45-.6h1.25c.42 0 .78.28.9.68l.18.62H0z"/>
      <path d="M-.25 1.85h5.1c.35 0 .65.3.65.65v1.15c0 .35-.3.65-.65.65h-5.1c-.35 0-.65-.3-.65-.65V2.5c0-.35.3-.65.65-.65z"/>
    </g>
    <g transform="translate(14.8 0)" fill="#fff7eb" stroke="#7b4b00" stroke-linejoin="round" stroke-width="0.45">
      <path d="M0 1.1h2l.45-.6h1.25c.42 0 .78.28.9.68l.18.62H0z"/>
      <path d="M-.25 1.85h5.1c.35 0 .65.3.65.65v1.15c0 .35-.3.65-.65.65h-5.1c-.35 0-.65-.3-.65-.65V2.5c0-.35.3-.65.65-.65z"/>
    </g>
  </g>
  <path d="M23.9 8.1l.55 1.55 1.55.55-1.55.55-.55 1.55-.55-1.55-1.55-.55 1.55-.55z" fill="#ffffff"/>
  <path d="M25.9 13.4l.33.95.95.33-.95.33-.33.95-.33-.95-.95-.33.95-.33z" fill="#bfe8fb"/>
</svg>
