<svg xmlns="http://www.w3.org/2000/svg" viewBox="0 0 256 256" role="img" aria-labelledby="title desc">
<title id="title">Media Categories</title>
<desc id="desc">A folder icon with layered media tiles for the Media Categories plugin.</desc>
<defs>
<linearGradient id="bg" x1="0%" y1="0%" x2="100%" y2="100%">
<stop offset="0%" stop-color="#f6fbff"/>
<stop offset="100%" stop-color="#d8ecff"/>
</linearGradient>
<linearGradient id="folder" x1="0%" y1="0%" x2="0%" y2="100%">
<stop offset="0%" stop-color="#ffd873"/>
<stop offset="100%" stop-color="#f2b93b"/>
</linearGradient>
<linearGradient id="tab" x1="0%" y1="0%" x2="0%" y2="100%">
<stop offset="0%" stop-color="#ffe59b"/>
<stop offset="100%" stop-color="#f6c85b"/>
</linearGradient>
<linearGradient id="tileA" x1="0%" y1="0%" x2="100%" y2="100%">
<stop offset="0%" stop-color="#4ea8ff"/>
<stop offset="100%" stop-color="#2b6cb0"/>
</linearGradient>
<linearGradient id="tileB" x1="0%" y1="0%" x2="100%" y2="100%">
<stop offset="0%" stop-color="#67d4b6"/>
<stop offset="100%" stop-color="#2f9e7f"/>
</linearGradient>
</defs>
<rect width="256" height="256" rx="52" fill="url(#bg)"/>
<path d="M56 86h50l14-18h32c10.6 0 19.9 7.1 22.8 17.3L184 118H56z" fill="url(#tab)" stroke="#8c8f94" stroke-width="6" stroke-linejoin="round"/>
<path d="M48 108h160c13.3 0 24 10.7 24 24v42c0 13.3-10.7 24-24 24H48c-13.3 0-24-10.7-24-24v-42c0-13.3 10.7-24 24-24z" fill="url(#folder)" stroke="#8c8f94" stroke-width="6"/>
<rect x="78" y="128" width="46" height="46" rx="10" fill="url(#tileA)"/>
<rect x="132" y="128" width="46" height="46" rx="10" fill="url(#tileB)"/>
<path d="M94 158l10-12 8 10 8-8" fill="none" stroke="#fff" stroke-linecap="round" stroke-linejoin="round" stroke-width="6"/>
<circle cx="149" cy="143" r="7" fill="#fff"/>
<path d="M140 166l12-13 10 10 7-8" fill="none" stroke="#fff" stroke-linecap="round" stroke-linejoin="round" stroke-width="6"/>
</svg>
